# xmcd
#
# Track frame offsets:
#	150
#	11525
#	18820
#	27990
#	41937
#	50795
#	62060
#	72732
#	80475
#	85977
#	98307
#	109442
#	120615
#	134460
#
# Disc length: 1946 seconds
#
# Revision: 1
# Processed by: cddbd v1.4PL0 Copyright (c) Steve Scherf et al.
# Submitted via: audiograbber 1.80.04
#
DISCID=c007980e
DTITLE=George Jones - Your Tender Years
DYEAR=1900
DGENRE=Country
TTITLE0=Your Tender Years
TTITLE1=Ragged, But Right
TTITLE2=Brush Arbors
TTITLE3=Open Pit Mine
TTITLE4=Jonesy
TTITLE5=A House Without Love
TTITLE6=Don't You Ever Get Tired Of Hurting Me
TTITLE7=Yes, I Know Why
TTITLE8=Liberty
TTITLE9=I Can't Escape From You
TTITLE10=From Now On All My Friends Are Gonna Be Strangers
TTITLE11=World Of Forgotten People
TTITLE12=Things Have Gone To Pieces
TTITLE13=Tarnished Angel
EXTD=
EXTT0=
EXTT1=
EXTT2=
EXTT3=
EXTT4=
EXTT5=
EXTT6=
EXTT7=
EXTT8=
EXTT9=
EXTT10=
EXTT11=
EXTT12=
EXTT13=
PLAYORDER=
